<svg width="9" height="13" viewBox="0 0 9 13" fill="none" xmlns="http://www.w3.org/2000/svg">
<path d="M1.46904 13V10.5238H0V9.34034H1.46904V7.71989H0V6.33613H1.46904V0H4.64353C6.1182 0 7.21013 0.321662 7.91932 0.964987C8.63977 1.60831 9 2.54295 9 3.76891C9 5.007 8.61163 5.97806 7.8349 6.68207C7.05816 7.37395 5.91557 7.71989 4.40713 7.71989H2.98874V9.34034H5.77486V10.5238H2.98874V13H1.46904ZM2.98874 6.33613H4.18762C5.21201 6.33613 6.00563 6.15406 6.56848 5.78992C7.14259 5.42577 7.42964 4.77031 7.42964 3.82353C7.42964 2.99813 7.19325 2.38515 6.72045 1.98459C6.24765 1.58403 5.51032 1.38375 4.50844 1.38375H2.98874V6.33613Z" fill="#061B28"/>
</svg>
